# xmcd
#
# Track frame offsets:
#	150
#	15780
#	28370
#	38700
#	57040
#	69645
#	85945
#	102390
#	117045
#	129480
#	139405
#	154435
#	166805
#	177210
#	190415
#	199570
#	212120
#	222840
#	237395
#	251875
#
# Disc length: 3472 seconds
#
# Revision: 0
# Processed by: cddbd v1.5.2PL0 Copyright (c) Steve Scherf et al.
# Submitted via: EasyCDDAExtractor 10.2.0.1
#
DISCID=200d8e14
DTITLE=The McGlothlins - Gold Edition
DYEAR=1995
DGENRE=Gospel
TTITLE0=Precious Thoughts
TTITLE1=Palms Of Victory
TTITLE2=More Precious Than Gold
TTITLE3=Resurrection Morn
TTITLE4=Light At the River
TTITLE5=Strength For The Journey
TTITLE6=He Chose Me
TTITLE7=Joy On The Other Side Of Jordan
TTITLE8=Better Farther
TTITLE9=Wouldn't Take Nothing For My Journey Now
TTITLE10=I Claim The Blood
TTITLE11=By The Blood Of The Lamb
TTITLE12=These Are They
TTITLE13=He Loves Me
TTITLE14=When I Step Beyond The Clouds
TTITLE15=Joy In The Morning
TTITLE16=I'm So Glad He Found Me
TTITLE17=Oh, What A Savior
TTITLE18=Will He Meet
TTITLE19=Till I Reach Home
EXTD=
EXTT0=
EXTT1=
EXTT2=
EXTT3=
EXTT4=
EXTT5=
EXTT6=
EXTT7=
EXTT8=
EXTT9=
EXTT10=
EXTT11=
EXTT12=
EXTT13=
EXTT14=
EXTT15=
EXTT16=
EXTT17=
EXTT18=
EXTT19=
PLAYORDER=
